<svg version="1.1" xmlns="http://www.w3.org/2000/svg" viewBox="0 0 1085.916015625 176.548828125" width="2171.83203125" height="353.09765625">
  <!-- svg-source:excalidraw -->
  
  <defs>
    <style>
      @font-face {
        font-family: "Virgil";
        src: url("https://excalidraw.com/Virgil.woff2");
      }
      @font-face {
        font-family: "Cascadia";
        src: url("https://excalidraw.com/Cascadia.woff2");
      }
    </style>
  </defs>
  <g transform="translate(840.123046875 10.4921875) rotate(0 117.896484375 76.384765625)"><path d="M0 0 C0 0, 0 0, 0 0 M0 0 C0 0, 0 0, 0 0 M-0.6955360211105892 6.560863257994049 C1.5986655225281658 5.613776463239867, 4.750912458809882 2.4207063555418538, 5.987390079679436 1.4458906452951246 M-0.26103430908637737 5.993004378725879 C0.9726040733156145 5.198538157461448, 2.7629728284886363 3.957760104997368, 4.508639485719151 -0.12403041163112583 M2.5972629495989192 13.460018682896674 C1.593630495426323 7.705007325499034, 6.5634897038170354 2.9228693138591515, 7.886302407038343 2.6021010453894498 M0.6989452638756144 11.767011133253156 C4.032000942302813 6.68915413542733, 8.388938144465307 5.7849716264418785, 12.137099616181981 -0.7658163820311664 M2.891098623112752 16.381953156460696 C6.913382237457124 12.616000870335512, 11.06150802350545 4.240894401093781, 15.945413052573283 0.07142610167385843 M-0.3432211420079927 16.53257101299303 C5.216672522145209 13.984820155810276, 12.033851859314751 5.899207431495521, 17.23114703176864 -0.26366415927885267 M4.009380132164738 26.74871691101706 C8.297652234616432 20.48647900774955, 11.730759980941631 7.968667697253768, 20.787928207123542 3.8797078555613282 M-0.7211775069870736 26.00091741391933 C7.948135747039558 15.008725103797701, 12.906741465847452 8.02549637413523, 21.474438930207754 -1.5611781464726207 M-0.6787956421683177 30.996052367378226 C3.8548272089453173 21.34151749194877, 8.142643387658197 17.880585567435634, 29.973156000163765 0.14986013937860143 M-0.04248156672814929 30.512787939746133 C5.513739436354871 25.38111021999319, 14.145340012360235 17.923382506697408, 26.56112629794738 2.064104452171618 M1.3525033759790936 39.01109564844643 C9.966293081098181 22.28993432524431, 21.829547294434455 15.298281887836275, 34.92527503654996 -1.3528780041948671 M-0.6778076906782111 37.865597033688175 C9.791673215680326 24.561573808304956, 20.772159884026102 10.206384565547737, 32.468000044531024 -0.47401775035418225 M-2.816103237527514 46.00129537712388 C11.091693316416253 24.07385331360414, 30.130139435875893 7.8279011435227375, 33.748915305176126 -1.2741167115885297 M2.037326001715755 41.88410288896017 C7.89385981689842 30.704727578121744, 16.20052592388143 19.990907662577058, 36.207771213540184 2.159435929833027 M-0.7674854937941618 50.008541416981146 C12.118348390585222 40.10262412225907, 17.99434101583082 26.22327770143508, 41.22763041089826 -1.4579919401229375 M1.4593805540352278 47.05953618944518 C13.50805871410808 32.76035527744784, 27.914685685462935 13.089149423986598, 40.70254321451836 0.057951605725193645 M-1.4055897879648356 53.87619781069766 C15.070907893088702 33.19336611454394, 32.63471759340994 16.276554780963316, 48.32542534261036 0.3405111737724589 M-0.14579062417627853 53.64163304813515 C15.278836183476919 34.16528848787861, 32.74933360186392 13.689411959117187, 49.16033959104705 -1.5138025387946321 M-3.4539111311455457 62.53677942184399 C18.6133558429746 35.624988506040935, 39.62560688088355 18.214766347086766, 56.18522870516843 3.667881672777117 M-1.2264139893372743 62.05131164891313 C18.44648385963181 40.644646824923, 36.6038730246106 19.755196195547796, 53.94857625266975 -1.782652890734493 M-2.113079947470787 68.97898487332235 C14.45626754675995 50.65491820122642, 30.304823077993472 34.546795482050925, 59.630420487466466 2.6597594204615795 M-0.7273826608947545 65.97270518499384 C11.152076494034826 55.99100963816211, 22.53788721705548 40.35358053112384, 58.970589242967975 -0.05424376621134641 M-2.2790391610750547 71.76182528803496 C19.305779831445932 51.86868345588439, 42.75716245586411 27.230229408376843, 65.16330429436047 3.2532584595052967 M-0.4334335082957139 72.99229059959201 C12.79969368138746 56.2253288476014, 27.105098580922355 41.03685692618426, 64.53910697148521 0.6242859477667579 M0.23877871693564146 76.52875302955238 C28.79478228502685 49.145651001636125, 46.98144171477974 16.726469350160606, 66.46663511474445 -3.5253563465211855 M0.6876757620413372 81.2380173265907 C27.717105926501187 48.85317982307512, 51.939345728975 18.898724124029393, 69.75277798180296 1.8769794350828661 M4.059864791417311 81.97469464055405 C21.00208886220864 65.6214283104525, 39.29803203751869 37.234557373708796, 78.40209155347439 -0.34834595493839515 M-1.297420190340091 84.47134022898183 C24.73487893777574 55.0074753234621, 49.7107686982337 28.388377314198173, 73.36964318346473 -1.66361469127105 M1.734161551263945 93.13372748461053 C21.20086174426504 64.49876772862805, 41.73626469529895 44.25596389139003, 80.5118035994443 -2.298820502175815 M-0.9111665718585087 92.49989624064848 C27.29420924435345 58.60761191149562, 57.07451328383108 27.773609977725386, 80.18366362005202 2.056234252588027 M-2.9155239276589526 99.34611268462405 C32.779306947516964 63.66943827314115, 63.21242598763533 21.23594353926154, 83.01682485751019 0.3415840544460309 M0.9523247480390893 96.26953730480537 C27.326372670397827 63.619129487936235, 55.72537600054771 30.58172115998775, 85.89819270110831 -1.1512376203479278 M-0.011697069485876455 99.77242386349681 C32.73029872883504 68.06843458752255, 70.25546743399698 25.99947416814007, 86.31866031656602 -0.6196174215023262 M-1.315901850094292 104.50345911466721 C18.3535815589781 79.99788767793525, 38.76740171907761 58.86648942309137, 91.50250397021512 0.6973878738041179 M-2.8403528853228366 112.90767588479937 C36.82995095291826 69.03482057760132, 71.82060447448076 26.71279632901738, 98.99773858146787 1.926564112658582 M-0.38282282267716283 108.34132985411705 C26.491824042904234 78.85890947452032, 52.02151942525704 49.31975690849898, 96.14526333691597 -1.905965651963868 M1.491437229686177 114.54835779121122 C24.588156987818614 82.72233747742581, 51.33658459558364 53.75374745041507, 97.31493964110965 3.6782685204992944 M0.24397773983398707 114.43132313614687 C23.97376411550179 88.37709787565083, 43.72914346669914 65.59521925679338, 99.51105684479231 0.45180748623115363 M3.5570532644351545 123.08010944630286 C32.630319202081054 85.76804372465351, 67.21631858499111 44.35301303368095, 107.2100671003474 -1.8648901553007349 M0.5928358810206475 121.3427946446397 C24.869165639036204 87.37165885503657, 54.153899982691534 54.09034335741991, 106.69386290338767 0.44231840138113654 M-3.0472602052103994 129.4447544729765 C23.717831210298822 101.38777544775938, 44.25197164420392 73.20506824430066, 107.80337594807513 -2.114147051170967 M0.44542098143582365 128.65831507281024 C33.64844454860443 86.63095789097264, 69.68659834373489 48.730443721999066, 110.57358005628355 -1.5916397226308803 M-2.9205711033849724 130.65442899413443 C30.139042366990655 107.2406572492519, 53.24583455609597 78.40365699720442, 112.73798576015832 -3.4245535442091537 M0.9935586716325275 133.61279886387325 C42.60341261089351 84.01674992540946, 85.04365499310848 37.35913666971791, 116.03344018403294 -0.5440586925901485 M-4.075436941194596 139.30571037334718 C32.287263986960845 106.21262637440861, 66.57115993311473 63.33448749167623, 124.96170361246249 2.4191514884869036 M-1.5039462548077722 139.7326329517118 C23.19601002880429 109.29761159584515, 48.84936309210408 80.4230129157232, 121.61683141718885 -1.9065865652819696 M3.4045083862167616 145.54665015329417 C42.773080718971976 99.22567284598233, 80.07416689627357 50.01240304904884, 123.5088469938816 -0.28332958951222764 M0.4961033616584558 145.92770969931777 C45.40847522621388 92.03906697712708, 90.68408307686298 43.360520923191984, 125.18412104933276 -1.1293989068232761 M-1.0142181900319576 154.1611479382319 C50.88534260406193 101.02955618389292, 98.37989322131924 38.77894134519979, 129.22564944737326 -1.0643350355618282 M0.17987589022618974 151.05846087926594 C36.561729711841004 110.96695476080272, 71.57330070944582 68.30205910099099, 132.17327561658553 1.3132454095532209 M0.07050691747125493 152.1303390078515 C54.50203905334003 102.92745806018144, 96.27584897407164 47.09333577284626, 138.26778487225351 1.296648198312607 M3.8641691014547295 154.54098207417175 C42.95901568896659 108.49534895301653, 84.22712593135233 61.85025122559489, 137.73594669878557 1.0350567262255517 M7.6831270176621 156.08148096055226 C41.05215766281067 120.60045403403389, 65.76757993598936 87.56789330337145, 144.24240188273097 1.5494734130220575 M8.398407294215813 155.97544328482212 C46.16050850354356 110.60790960688095, 87.68613937842836 62.93583605091069, 144.0564680799326 0.828627334724861 M10.99532386013695 155.4263093217823 C42.87220856027684 122.04518791589263, 67.49318227026004 83.13823536511204, 149.48657254062724 -0.05528083651147919 M13.47183011078798 154.90145449773505 C48.03389273989081 114.65935450491799, 80.87963571344866 77.26558259730996, 146.765278434132 0.3282645321740942 M19.73136169459811 154.57763823548555 C71.95743733085652 94.12461051115932, 118.94343068923826 28.7485841871164, 153.40787897804466 2.6639601972144136 M17.689021381190866 156.43957295442064 C59.80727592828825 112.0156451133965, 98.99034275679475 68.1033637360197, 154.27796485581453 -0.5957811726205446 M21.105098904609314 154.99161194406267 C59.81408401463649 110.92880241432576, 95.7181911533873 74.35720132269276, 158.6390617873701 -1.2813604145484703 M24.423277606327314 156.15268257376414 C65.41519655026964 104.15108045974398, 106.16564360503376 56.67957706435442, 157.26944335490327 -0.8099940211303074 M28.722893680066818 153.41495009309713 C65.21428734420809 117.22808365771787, 92.95247131016278 76.58777980680821, 166.2496830502504 3.101868539475617 M29.115715095247204 155.30842946539497 C60.38383028816776 113.89403595842403, 94.53904112247552 77.07558267507345, 165.66778231522304 -1.8342127669105304 M35.01650712901329 156.5470230465677 C69.443054888333 114.87785050519568, 104.52240682262374 72.78264069680621, 167.6112801906071 -1.954926863923352 M34.86992592401018 153.41415634132156 C84.24942738966556 97.79658802555703, 135.26070835269482 39.04394611980013, 170.9942795470368 0.29084735537486156 M38.765157879537 157.91413521541813 C73.81659375370893 117.99707302788892, 109.26231631785467 78.57650923136687, 175.249974079817 -2.440137953163067 M39.74870361490047 156.36005334547937 C71.13062834722577 119.44311572239351, 100.62080156946078 83.27195736230922, 176.21392049917378 0.4185748170892931 M47.42672861147392 152.5501738011723 C76.15311231242417 121.65841989333151, 106.26977266391786 83.9843140811789, 179.0694403284632 2.9203384872388756 M45.2480168997741 154.6784183394698 C73.48052654723027 124.80797293230357, 100.14767433643225 92.69998139935825, 179.48749259647016 -0.4416725492478992 M47.62453014847738 156.59766813447987 C99.02033748434897 93.39379143992943, 156.03017311874368 35.1239813263198, 184.3493169972132 3.0951809763295817 M50.71870484366627 156.64206279740827 C95.2306428910697 106.14636105646623, 138.8826980126928 56.3343245168168, 186.18493577368238 0.9574551196132723 M56.72141190285327 158.61022965189403 C103.74677901311016 95.16797029052046, 152.9678215981485 36.248511074275804, 189.3293597561393 1.508474735043171 M54.05877011193696 156.59799153053805 C94.84596040927322 105.43457187977542, 138.93916508798577 59.75135057875852, 189.06760579614772 0.442619182264249 M60.96589849235674 156.78870723231358 C111.83865481617782 95.09829275188228, 165.10667688191947 32.94602102433199, 194.70711048290778 2.1673574349848286 M60.09715381006026 153.59143929891601 C90.61870576504458 123.94532438995485, 118.60124783742225 91.8099168003148, 194.5700480297645 0.3065041558957964 M67.60730105812787 153.43623881050047 C118.71310305885397 92.81421857925953, 172.33788995890941 30.008859076192483, 202.60758150303377 0.8183675765414495 M67.60919252190087 155.74176659692316 C107.66522510857992 104.90278788697803, 149.02706105617557 54.938031768376845, 202.9729052912099 -0.34598457292354967 M70.9933062666438 156.13195234095053 C108.82201914054006 109.66824603280061, 148.9049682785939 67.54166738089559, 204.7015869673694 -0.4034998201660772 M73.57588106759803 155.71420600273697 C125.42897886767763 94.24203685072233, 175.66703165910585 34.26923590648055, 206.1989262834357 1.1591076161712404 M80.02801917779459 154.62202013967575 C125.81461120252116 99.10376741851483, 170.8519960481976 43.577091825025, 209.6637857201797 -1.8441676735008137 M78.28133872164143 156.67068917011363 C129.17395999805913 95.94579819623348, 183.24501050539664 35.060376403158614, 210.70989581374403 1.416683569123745 M84.92909457680734 156.83321594242196 C121.40646621964912 111.18614471645773, 161.35992994726584 69.97613263321827, 217.04959823106685 1.203937817908129 M83.10775589479525 154.1062853366056 C132.36412286051126 95.80768704414034, 183.6871740835597 35.94125808651217, 217.50211747571163 1.2581752656739935 M84.68577984232213 158.6441836464511 C132.7186449723277 97.56372814144432, 186.46025487221826 46.51641355659962, 223.3938926630459 2.512727116947646 M88.51307475217419 154.68024271534392 C133.33585618013663 98.60343156651957, 183.17306627295704 42.277712669054104, 223.6439870672657 -0.33666438885947814 M96.5347598783161 158.53963756875908 C132.59625854378672 111.71027844405822, 167.67137246210282 69.35834265329048, 231.6868298044689 -0.4273523937613314 M91.8259358951675 154.49253420325613 C145.48542509085254 96.7858249469543, 196.3328491849797 36.40446760156811, 227.19072487260794 0.5159265446384023 M97.98077278217927 155.86077358785786 C143.81148140550175 95.11050127942765, 198.56409175099319 40.70128977972679, 236.11319233710105 -1.0371196700819074 M99.46293017951484 154.3550059728484 C134.42106232722418 116.13939131539952, 170.3082239627437 74.125583912131, 232.28184188029056 -0.6042747691388295 M100.33797582920725 158.3519259332391 C143.33391186156007 113.5579211170429, 178.61069243247985 69.09868045311102, 237.33514450574032 4.046773936783056 M103.36292762160478 155.8703687541402 C152.89517614602923 102.3920058278336, 198.5675554033548 49.424446278332795, 238.5078060857712 2.5286012081527502 M112.60349033713237 159.4303964253955 C152.05967592172988 106.35906719858113, 201.6944264718344 51.92196539159367, 233.99407548977655 5.867095437037975 M107.29719641372458 155.3164196078174 C158.17100232803017 98.69767566979533, 205.9349580204635 40.179173421986036, 239.066695326554 6.29923652126196 M112.89691796726854 158.234787188072 C145.98378410576146 115.95532296123824, 181.58760608809814 79.41142347599457, 233.71835241319738 11.618604172207725 M114.78732211343319 153.9333267021666 C150.44957243250295 116.81244355667195, 182.4481517097039 77.25397156919246, 235.3198656015297 14.261718161590707 M116.42124182964471 153.01130238692835 C157.94922757293568 112.88778418712911, 201.36298766583565 67.77506264072095, 235.79887604871422 22.37505451123674 M118.05565773556737 155.9014971792288 C165.7582687773627 104.61759779803629, 208.4818534127577 50.64786077510216, 237.55557577097446 20.027347735124422 M123.46001552911684 156.41580606464396 C166.1766913019181 111.83076160791236, 198.1965463287961 69.35045367712148, 238.387151385221 28.193961317695567 M123.27430668967054 156.064417151996 C169.5795502598247 106.70188418054869, 213.7012559970624 53.168036758984954, 237.8880993784697 26.454543425746152 M126.47724405457893 153.19331308478937 C165.98061430416573 112.37517090070136, 200.19514716221022 77.00050818838717, 239.81360702757377 34.43431363426366 M128.90129251932422 156.43675480435118 C168.43688976108896 108.33042268791525, 210.9118666521228 60.30067353287785, 238.59110233355898 30.91022884644785 M136.11585601088703 157.390312490044 C169.72043931659596 123.6958936445558, 199.33439996280183 88.06651106204717, 238.0891229646665 35.044251324511535 M134.55403113407195 154.5416837492863 C174.39387675308348 114.08887848180777, 208.2950818107395 71.1729845951897, 238.47417067982377 37.682509681112535 M140.69923138693505 153.64244414397845 C179.0965333593257 113.40079633126308, 210.53959767363244 75.00597475696277, 240.2474437723647 46.528098011341456 M139.38585857749516 155.82355967068443 C168.02045632933476 122.81905181178242, 195.85871167098335 92.68354814768333, 237.10022379781708 43.07270662295497 M148.2296737875791 154.3868220892722 C173.85367817533327 127.01453105312922, 201.207318871773 90.55151965524513, 241.1270015265339 53.46048981765564 M146.95950325913742 153.98524368153755 C182.99641190299883 114.65494379890433, 222.16509836984397 74.18468076334246, 236.44233731809192 48.03448411518987 M153.88993820171302 157.14971118949572 C183.51543956953876 121.28117579038091, 215.45256828943076 84.99563963290072, 234.15273871606797 58.00050410702461 M151.62361372258013 155.40077896572868 C176.10124543420773 126.92530910308415, 199.22059086882467 100.68033417167757, 238.5405660342297 54.81297909170026 M158.04170323419297 153.7588504873285 C173.43594669485154 138.05669634364378, 189.5589169188258 116.90990097765035, 236.6785214458231 65.85869242212785 M155.3862308773669 155.45271413624974 C177.23327552339154 134.60953938320532, 195.19433463145327 112.13212994464054, 237.71935710577407 64.03683391547811 M165.7270988739129 151.63112984634108 C176.44923629857672 140.45805713173436, 195.3005492225892 118.0322510057366, 233.48866720469317 67.5847571265359 M162.2913157670792 154.94477987698383 C183.44444885581308 127.39464331933533, 207.88809932317346 101.79722517583187, 238.96407782630644 67.1308730204065 M164.01111969673826 151.7396228894357 C181.4872693473608 134.65076191542582, 200.59814035457404 116.24342498777682, 234.14035806854372 72.53458434315097 M166.63616277226998 157.19392188114566 C192.91386017510627 126.71697306993391, 218.0547648481252 98.02356928421288, 238.13842882637982 75.40813584970009 M172.76344777853464 158.12771573951457 C195.05549777344075 135.3864783802582, 206.04335143768927 112.78539064189101, 235.74546361324025 78.3843726948753 M170.62822252349233 156.66942959194992 C186.0622869779258 139.39478717545785, 202.396389868124 121.80613052452338, 235.64126698654724 80.70900559657365 M175.44027560819595 155.42323576014823 C199.26077723387988 128.22910510792346, 222.02951629656712 103.71513469353525, 233.75236382767673 88.64476204527942 M178.04192481432764 155.6320649432797 C196.13101468866967 133.46263230524124, 213.92914198578504 112.35628355832911, 238.06342835039015 88.0403379449102 M184.42671929057823 158.80548449401618 C200.7220419120456 137.88202785139526, 218.3856370365279 115.61014918211265, 239.28836231670917 90.62786643704284 M182.4360918043195 153.22609529812695 C201.07219625746362 135.2673011621115, 221.30867359786424 109.47865301563384, 238.40514132745207 92.66749400770176 M184.53834631457548 155.29291430468894 C203.77486318322832 132.78088321242006, 220.69547714368284 117.7665440907595, 238.66121406923156 100.73495073373603 M189.53046578704934 153.8919700903747 C198.78460521112797 141.27512552162293, 212.09826126793126 127.71757227065143, 238.4525544613145 100.52701696883129 M191.0196477850437 152.95545173484592 C207.23962292446384 138.77310809958124, 222.9152262642043 121.46499972293029, 234.70153866110945 102.42346355826126 M194.0791814220607 155.70364418301492 C204.90240689800325 144.6964636868628, 214.3542353397196 135.21548868533404, 236.99514963253046 105.31866502151357 M201.0455661908769 154.20217414805774 C204.8116815854546 145.78666996444366, 219.0886963683393 131.80712152270655, 233.54464316820832 111.72116603352076 M198.24729350293512 154.78125450993065 C213.15376528286953 143.4025914783411, 222.6497839339163 127.92457974862569, 235.48256497165295 109.14454010896331 M203.71996763693107 156.9936330870038 C214.77149238490944 141.99839304013614, 226.25724015263995 132.5035494600715, 239.41234507942215 114.74026052308504 M204.48424918921603 153.62844343411382 C209.6092769413711 148.54268619436306, 217.6180000367365 137.9374022915184, 235.68141777226344 119.14821666506354 M211.57716961210022 152.12953091525466 C216.9371045117496 144.35454792926095, 226.2895472385738 131.595652872918, 239.95538549960693 125.64442356963359 M209.90041577448497 153.54503538944752 C220.68758816474147 144.24847049340028, 228.83661096669314 130.6618129206789, 235.89271769390544 124.60677455280624 M214.58041322124032 156.4610441754898 C219.85641766673504 142.99366440236585, 234.30095452806586 131.6549879922225, 237.7549569176567 127.93648253673695 M215.1405529182854 154.9643602389237 C222.7551155866747 148.7441544046022, 228.00135610561847 140.64641311801768, 237.32839453016047 129.34347570607446 M219.62339095324538 154.1785002312797 C225.8352265124303 148.08019123523377, 233.17488598903842 146.50784473910363, 235.66511640943693 132.42544854729732 M218.76034041419885 153.86592991642533 C226.86096711934687 148.6914412289479, 232.17231241328108 142.01441022361342, 236.3287114115815 136.8197970680829 M228.23773059360425 154.1265364526247 C230.15924889136022 148.05006661755004, 232.25052693619796 145.14377023160844, 239.3779375198447 139.01330934724547 M226.05174895152192 154.2066914963012 C227.66406659441395 152.91422497281133, 230.34663630128034 147.74446725989247, 237.9599687709623 142.64383204429188 M230.07765785823736 154.99488199746935 C233.6021893619371 155.18286951737534, 232.88760111949878 151.70388725911843, 237.22756487387335 146.35545395132226 M231.13296318086955 155.63811077608494 C233.70423996420848 151.66416612708542, 236.45191657628928 150.4700024081168, 237.56668170611476 147.8640630767129" stroke="#868e96" stroke-width="0.5" fill="none"></path><path d="M-1.1280858904097664 -1.4686922198453916 C83.49127802719187 -3.6533426492668557, 164.57761251391227 -1.7987029052145274, 235.76701860815785 -2.2516486885409908 M-1.6576580494849402 1.2752622749390012 C72.7988744210225 2.0367457245467833, 146.58411777226436 2.162955327506406, 235.32872743651157 0.10876730513954862 M234.48967402428391 0.6602949574589729 C235.83743018488212 42.360326086285205, 231.1052469668798 93.18383896559972, 235.01407163590196 154.62693662196398 M234.60710630193356 1.2337693832814693 C232.68398176654668 57.19414148904835, 234.80369543060155 114.47332691878984, 235.75225803628567 151.62266954407096 M234.97585394185933 150.81165890222763 C163.6070601956317 151.32244919726497, 95.33050785549257 155.65950113446823, -1.4968643612987673 151.21297164718894 M234.94018387823132 153.30691943459362 C160.51481902040297 157.14914355253248, 82.76530763348508 154.59898628168182, 1.0942233407129855 153.23004676903466 M2.6373118683695793 154.45072931796312 C0.421738722233131 95.22785580347045, -2.118351600261376 30.595749195716053, -1.0588868334889412 -1.5263393446803093 M-0.23242535814642906 153.36506816372275 C-2.042646926049638 97.41062426444623, 0.35492165743882653 44.69369486101931, -1.980271365493536 -1.679083738476038" stroke="#fde04a" stroke-width="1" fill="none"></path></g><g transform="translate(59.58984375 54.919921875) rotate(0 75 35)"><text x="75" y="25" font-family="Virgil, Segoe UI Emoji" font-size="28px" fill="#fde04a" text-anchor="middle" style="white-space: pre;" direction="ltr">FEATURES</text><text x="75" y="60" font-family="Virgil, Segoe UI Emoji" font-size="28px" fill="#fde04a" text-anchor="middle" style="white-space: pre;" direction="ltr">TEAMS</text></g><g transform="translate(484.19921875 55.431640625) rotate(0 66.5 35)"><text x="66.5" y="25" font-family="Virgil, Segoe UI Emoji" font-size="28px" fill="#fde04a" text-anchor="middle" style="white-space: pre;" direction="ltr">DEVICES</text><text x="66.5" y="60" font-family="Virgil, Segoe UI Emoji" font-size="28px" fill="#fde04a" text-anchor="middle" style="white-space: pre;" direction="ltr">TEAMS</text></g><g transform="translate(10 13.779296875) rotate(0 117.896484375 76.384765625)"><path d="M2.994918812328858 0.05731248884883292 C69.76416273188663 4.961766696398092, 144.08981766837275 -0.72422688603061, 239.0026131701663 -1.0398258157107616 M-0.34987339291885433 1.5784721327281872 C50.158087877614896 -1.4915578349445848, 98.05091779254539 -4.505365074568153, 235.51170573147235 -0.7296647188369527 M237.95304673165086 -2.8757477328181267 C237.7904821283538 51.408109004397566, 234.7093761808593 105.97023264835154, 238.63380115479234 154.59054297953844 M237.08773455396297 -0.3598769046366215 C238.4165446826858 38.85727442476419, 236.35024607867427 74.96819025001462, 234.94828698411587 151.1360102556646 M238.4308487974428 154.73512887257058 C161.21978555232354 152.70342872620552, 89.76100154298716 156.1558914019134, -1.3164615210655062 153.78253498443732 M234.61515387845213 154.13203041735412 C170.60443235709386 153.17099709843416, 104.91018766960033 154.0067988729054, 1.6323375091555712 152.74405796108857 M2.8477243706583977 151.27262730151415 C-0.42690861620751086 104.93587211629128, 1.0600548943057948 46.875918994056704, -0.5641878321766853 -1.9108470007777214 M-1.3330806754529476 151.6322464607656 C1.0886651719971265 102.38792713464719, 3.5106707061691846 51.440448476253366, 1.7658216692507267 1.9777964018285275" stroke="#fde04a" stroke-width="2" fill="none"></path></g><g transform="translate(869.328125 69.525390625) rotate(0 85 17.5)"><text x="0" y="25" font-family="Virgil, Segoe UI Emoji" font-size="28px" fill="#fde04a" text-anchor="start" style="white-space: pre;" direction="ltr">CUSTOMERS</text></g><g><g stroke-opacity="0.6" fill-opacity="0.6" transform="translate(251.6484375 86.2528008325014) rotate(0 86.62218034192921 0.6080284774721747)"><path d="M-1.962290609627962 2.2699826486408705 C27.49502649630109 1.9375840212047493, 145.9635108741621 -0.732021298438112, 175.20665129348635 -1.053925693696499 M2.167941703051329 1.0339479906857019 C31.312815393656493 0.9587815969328489, 143.0373845951259 1.3463633449576304, 172.49767713949083 1.7346867888512616" stroke="#fde04a" stroke-width="2" fill="none"></path></g><g stroke-opacity="0.6" fill-opacity="0.6" transform="translate(251.6484375 86.2528008325014) rotate(0 86.62218034192921 0.6080284774721747)"><path d="M147.47249223638173 10.541159588806758 C148.87819579420213 6.032154602270051, 157.79589494894446 11.137379508141027, 172.4370491351187 3.1602877422513966 M143.48120790693756 11.255292989276777 C153.82408875858582 8.787551150942148, 158.33536694685 5.478498174553042, 171.54225363910197 2.4868995181562905" stroke="#fde04a" stroke-width="2" fill="none"></path></g><g stroke-opacity="0.6" fill-opacity="0.6" transform="translate(251.6484375 86.2528008325014) rotate(0 86.62218034192921 0.6080284774721747)"><path d="M147.62860090995594 -9.979455228197983 C149.1338921037729 -9.46108322623178, 158.01332930887023 0.673706743743792, 172.4370491351187 3.1602877422513966 M143.63731658051177 -9.265321827727965 C153.99782421827635 -5.993471127201326, 158.4654558982834 -3.5651543371002097, 171.54225363910197 2.4868995181562905" stroke="#fde04a" stroke-width="2" fill="none"></path></g></g><g transform="translate(430.806640625 10) rotate(0 117.896484375 76.384765625)"><path d="M0.7242282435678103 2.1475102617817035 C50.13274040126386 5.670377575467602, 100.60842322892712 5.456697776551028, 236.53178642870682 0.5301389175142047 M0.8353472601793268 1.40719959129322 C54.057952115652306 1.7973381331807217, 108.13027952416972 1.26206097186912, 237.3609363131232 -1.4255604936355037 M235.53416699916127 3.3806852623820305 C230.0347448246596 32.73609023272512, 236.6015494721053 66.47863356976742, 233.5409774258733 150.8963243290782 M234.04170450195673 0.7234827019274235 C232.5454855765151 55.61396026741496, 234.28400441062917 110.76332226283414, 235.11382838711145 153.98507425561547 M237.0294931048833 151.83275105834318 C174.264498531665 152.3780844741237, 109.49304461418579 154.93005878788773, -0.8909977899861842 154.06130235189778 M236.43958376268853 152.88920402442506 C184.53749360916936 157.54249560405657, 134.72980050451105 157.14982029915282, 1.5553030575074924 151.76441579418128 M3.9602367356419563 149.35699742287397 C0.4029263135282961 123.32213975017439, -2.3700670126588377 92.35557278792402, 1.494528241455555 -1.6272566989064217 M-0.1493310071527958 152.41248497739434 C4.012412304465688 94.91086338102104, 4.783256883208669 40.23770629270439, -0.6286673881113529 1.596508476883173" stroke="#fde04a" stroke-width="2" fill="none"></path></g><g><g stroke-opacity="0.6" fill-opacity="0.6" transform="translate(665.5602876083553 86.34669735047191) rotate(0 84.06560054823763 0.6214903511178989)"><path d="M1.9412336461246014 0.4893320806324484 C30.462802515874305 0.6997339435806339, 141.14612221643327 3.1962936592054683, 168.58067911311983 3.3184104574563884 M-0.4494780166447163 -1.7133414570987227 C27.906934933712083 -2.5176579423357586, 137.4411676439146 -1.8658763893492698, 166.20633929178118 -0.9191053806898211" stroke="#fde04a" stroke-width="2" fill="none"></path></g><g stroke-opacity="0.6" fill-opacity="0.6" transform="translate(665.5602876083553 86.34669735047191) rotate(0 84.06560054823763 0.6214903511178989)"><path d="M138.5432376675982 8.499071047258703 C145.66216736646138 3.1596724464724293, 148.5942874593571 5.9129515799307795, 164.4465445126593 -3.972888372754774 M139.3464806304056 9.84012872408065 C145.80568224126296 7.058755443038402, 152.08580466645464 1.7090242675316292, 166.6842050808668 -1.8596004284081076" stroke="#fde04a" stroke-width="2" fill="none"></path></g><g stroke-opacity="0.6" fill-opacity="0.6" transform="translate(665.5602876083553 86.34669735047191) rotate(0 84.06560054823763 0.6214903511178989)"><path d="M138.89422259164255 -12.019135793713854 C146.24113006128584 -13.065900371066483, 149.09990350719633 -6.0248539552019, 164.4465445126593 -3.972888372754774 M139.69746555444996 -10.678078116891907 C145.96757325170108 -7.893181182587597, 152.15256832038867 -7.681867870783679, 166.6842050808668 -1.8596004284081076" stroke="#fde04a" stroke-width="2" fill="none"></path></g></g></svg>